<?xml version="1.0" encoding="utf-8"?>
<!-- Generator: Adobe Illustrator 24.0.0, SVG Export Plug-In . SVG Version: 6.00 Build 0)  -->
<svg version="1.1" id="Layer_1" xmlns="http://www.w3.org/2000/svg" xmlns:xlink="http://www.w3.org/1999/xlink" x="0px" y="0px"
	 viewBox="0 0 303.5 16.4" style="enable-background:new 0 0 303.5 16.4;" xml:space="preserve">
<style type="text/css">
	.st0{fill:#2F60D2;}
</style>
<g>
	<g>
		<g>
			<path class="st0" d="M302.6,13.8c-0.8,0.1-0.4,0.4-0.1,0.6c0.1,0.1,0.1,0.1,0,0.2c-0.2,0.4-1.2,0.4-1.8,0.7
				c-0.4,0.2-1.1,0.1-1.8,0c-0.6-0.1-1.3-0.1-1.9-0.1c-1.7,0-3.4-0.1-5.2-0.2c-0.8-0.1-1.6-0.1-2.3,0c-0.6,0-1.2,0-1.8-0.2
				c-0.9-0.2-1.9-0.3-2.7-0.1c-1.1,0.2-2.3,0.2-3.6,0c-1.4-0.2-2.8-0.3-4.2-0.4c-1.3-0.1-2.6-0.2-3.7-0.5c-2.4-0.7-4.8-0.8-7.4-0.8
				c-0.6,0-1.2,0.1-1.8,0.1c-0.8,0-1.6,0-2.3-0.1c-1.7-0.3-3.4-0.3-5.1-0.4c-1.1-0.1-2.2-0.1-3.3-0.1c-1.2,0-2.5,0-3.7-0.2
				c-1.1-0.2-2.2-0.1-3.3-0.1c-1.4,0-2.8,0-4.2-0.2c-0.8-0.1-1.4-0.3-2-0.5c-0.4-0.2-1-0.3-1.7-0.2c-0.7,0.1-1.5,0.1-2.2,0
				c-3.5-0.8-7.2-1.1-11.1-0.9c-1.9,0.1-3.7,0.1-5.6-0.2c-1.2-0.2-2.5-0.2-3.6,0.1c-0.9,0.2-1.7,0.2-2.7,0.1
				c-2.3-0.3-4.6-0.6-6.9-0.8c-0.8-0.1-1.6-0.2-2.3-0.2l-8.1-0.3c-2.2-0.1-4.4-0.1-6.5,0.2c-0.4,0.1-0.9,0.1-1.4,0.1
				c-3.1-0.2-6.3,0.1-9.4-0.4c-0.9-0.1-1.9,0-2.8,0c-0.9,0-1.9-0.1-2.8-0.1c-1.4-0.4-2.9-0.4-4.5-0.3c-0.6,0-1.3,0-1.9-0.1
				c-0.9-0.1-1.8-0.2-2.7,0c-0.2,0-0.6,0-0.9-0.1c-0.7-0.2-1.5-0.2-2.3-0.2l-3.3,0h-0.9c-1.3,0-2.3,0.4-3.5,0.4
				c-1.3,0-2.5-0.2-3.8,0c-0.8,0.1-1.5,0.2-2.2,0.3c-1.2,0.2-2.4,0.3-3.7,0.1c-0.8-0.1-1.6-0.1-2.3,0c-2.4,0.2-4.7,0-6.9-0.4
				c-0.4-0.1-0.9-0.2-1.3-0.2c-2.6,0.1-5-0.2-7.6-0.2l-0.5,0c-1.8,0-3.4-0.1-5.1-0.3c-0.4-0.1-0.9-0.1-1.3-0.2
				c-1.4-0.1-2.8-0.1-4.2,0.1c-0.6,0.1-1.2,0.2-1.8,0.3c-1.4,0.1-2.5,0.5-4,0.6c-3,0.1-6,0.2-9,0.4h-0.5c-1.4,0-2.8-0.1-4.1-0.3
				c-1.4,0.1-2.6,0.5-4,0.5c-0.6,0-1.3,0-1.9,0c-0.5,0-0.9-0.1-1.3-0.1c-2.4-0.4-4.8-0.3-7.3,0.1c-1.8,0.3-3.6,0.5-5.6,0.4
				c-0.2,0-0.3,0-0.5,0c-3.1,0.6-6.2,0.3-9.3,0.2c-0.1,0-0.2-0.1-0.2-0.1C64.9,9.1,65.1,9,65.2,9c0.3-0.1,0.6-0.1,0.9-0.1
				c0.1,0,0.1-0.1,0.1-0.1L62,8.7c-0.4,0-0.6,0.2-0.4,0.4c0.1,0.3,0,0.4-0.5,0.4c-3,0.1-6,0.4-9,0.3c-1.1,0-2.2,0.1-3.3,0.1
				c-1.1,0-2.2,0-3.2-0.1c-1.1-0.1-2.2-0.1-3.2,0.1c-1.6,0.3-3,0.3-4.6,0.1c-1.3-0.1-2.7-0.2-4.1-0.3c-1.5-0.1-2.8,0.1-3.9,0.6
				c-0.3,0.1-0.6,0.3-1.2,0.3c-2.7,0-4,0-6,0.3c-0.9,0.1-1.9,0.2-2.8,0.4c-0.6,0.1-1.3,0.1-1.9,0.1c-2.2-0.3-4.6-0.1-6.9,0.2
				c-1.4,0.2-2.8,0.3-4.2,0.5c-1.3,0.1-2.2,0-2.6-0.4c-0.3-0.3-0.3-0.7-1-0.9C2,10.4,1.7,10,1.6,9.5c0-0.2-0.2-0.4-0.5-0.5
				c-1.5-0.5-1.4-1,0-1.7c0.9-0.4,1.5-1,2.1-1.5c0.5-0.4,1-0.6,2.1-0.7c1-0.1,1.7-0.4,2.5-0.6c0.9-0.3,1.6-0.3,2.6,0
				c0.4,0.1,0.6,0.2,1,0.3c0.2,0,0.7,0,0.9,0c1.4-0.4,2.7-0.3,4.1-0.3c0.1,0,0.3,0.1,0.3,0.1c0.2,1,2.4,0.8,4.2,0.8
				c1.2,0,2.5-0.1,3.8-0.2c0.8-0.1,1.6-0.1,2.3,0.1c1.4,0.3,2.5,0.3,3.5-0.4c1-0.5,2.3-0.7,3.8-0.4c0.1,0,0.3,0,0.4,0.1l-0.1,0
				c1,0.2,1,0.2,2.1-0.1l-0.1,0c1.6-0.2,3.1-0.3,4.7-0.4c0.7-0.1,1.2-0.2,1.7-0.3c0.7-0.2,1.4-0.3,2.2-0.3c1.4-0.1,2.5-0.1,3,0.5
				c0.1,0.1,0.3,0.2,0.5,0.3c0.4,0.2,1,0.3,1.7,0.2c1.5-0.2,3.1-0.3,4.7-0.3c0.9,0,1.9-0.1,2.8-0.2c1.5-0.2,3-0.4,4.5-0.6
				c1.5-0.2,3-0.4,4.7-0.3c0.7,0,1.6-0.1,2.3-0.1c1.6-0.1,3.1-0.1,4.2,0.4c0.2,0.1,0.5,0.1,0.8,0.1c0.6,0.1,1.7-0.2,1.9-0.4
				c0.1-0.1-0.1-0.2,0-0.3c0.2-0.3,0.9-0.6,1.7-0.5c0.9,0,1.8,0.1,2.8,0.1c0.6,0,1.3,0,1.9,0c1.9,0,3.8-0.1,5.7,0
				c1.6-0.3,3.1-0.1,4.6,0l-0.1,0c0.6,0.1,1.1,0.2,1.7,0.2c1.3,0,2.5,0,3.8,0c0.8,0,1.6-0.1,2.4,0c1.9,0.2,3.7,0.1,5.6-0.1
				c1.7-0.2,3.4-0.2,5.1,0.1c1.6,0.3,3.4,0.2,5.1,0.3c0.1,0,0.3,0,0.5,0c2.5-0.3,2.5-0.3,5.3-0.1c0.5,0,0.9,0,1.3-0.2
				c0.2-0.1,0.4-0.2,0.7-0.2c0.6-0.2,1.2-0.1,1.5,0.2c0.3,0.3,0.9,0.5,1.8,0.4c1.7-0.1,3.4-0.1,5.2,0c1.2,0.1,2.5,0.1,3.8,0.1
				c1.3,0,1.6-0.1,2-0.7c0.2-0.2,1-0.4,1.4-0.2c0.2,0.1,0.4,0.2,0.6,0.3c0.8,0.4,0.9,0.4,1.8,0c0.8-0.3,1.7-0.5,2.9-0.5
				c2.2,0,4.4,0,6.6-0.2c0.6,0,1.3,0,1.9,0c1.9,0.2,3.8,0.1,5.7,0.2c1.5,0.1,2.8-0.1,3.8-0.5c0.2-0.1,0.4-0.2,0.7-0.2
				c0.4-0.1,0.9-0.1,1.3,0c1.6,0.6,3.6,0.7,5.7,0.8c0.3,0,0.6-0.1,0.8-0.1c-0.2-0.1-0.4-0.2-0.6-0.2c-0.3-0.1-0.5-0.2-0.4-0.3
				c0,0,0.3-0.1,0.4-0.1c1.8,0.1,3.4,0.4,5,0.6c0.7,0.1,1.2,0,1.6-0.2c0.1,0,0.2-0.1,0.3-0.1c0.5-0.2,1.2-0.2,1.8-0.1
				c0.8,0.2,1.6,0.4,2.4,0.6c1.2,0.3,2,0.3,2.9-0.1c0.6-0.3,1.2-0.3,2.1-0.1c0.4,0.1,1,0.2,1.3,0.2c1.2-0.3,2.5-0.1,3.7,0
				c1.9,0,3.8,0,5.7,0c0.6,0,1.3,0,1.9,0.1c2.2,0.5,4.6,0.6,7,0.5c0.6,0,0.7-0.2,0.6-0.4c0,0,0.1-0.1,0.2-0.1c0.5,0,0.9-0.1,1.4,0
				c2.5,0.1,5.1,0.2,7.6,0.4c3.2,0.3,6.3,0.4,9.5,0.3c1,0,1.8,0.1,2.6,0.4c0.7,0.3,1.4,0.5,2.2,0.8c0.2,0.1,0.6,0,0.9,0
				c0.3,0,0.6-0.1,0.8-0.2c1.8-0.6,4-0.8,6.5-0.6c2.4,0.2,4.7,0.4,7.1,0.7c1.6,0.2,3.1,0.4,4.7,0.5c1,0.1,1.8,0,2.3-0.4
				c0.2-0.2,0.5-0.3,0.8-0.4c0.3-0.1,1,0,1.2,0.1c0.4,0.3,0.7,0.6,1.1,0.8c0.1,0.1,0.2,0.1,0.3,0.1c0.1,0,0.2-0.1,0.3-0.1
				c0.2-0.2,0.3-0.3,0.6-0.4c0.8-0.4,1.8-0.5,3.2-0.5c1.4,0.1,2.9,0.2,4.2,0.4c0.4,0.1,0.9,0.2,1.3,0.2c1.1,0.1,2.2-0.1,3.3,0.2
				c0.8,0.2,1.4,0.6,2.1,0.8c0.3,0.1,1,0.2,1.3,0.1c1.2-0.1,2.1-0.4,1.8-1c-0.1-0.3,0.4-0.5,0.9-0.5c0.5,0,0.9,0.1,1.2,0.3
				c0.3,0.2,0.6,0.4,0.9,0.4c1.5,0.1,2.7,0.5,3.8,0.9c0.3,0.1,0.9,0.2,1.3,0.2c0.8,0.1,1.6,0.1,2.4,0.1c0.9,0,1.9,0,2.8,0.1
				c2.7,0.4,5.4,0.4,8,0.5c0.5,0,1,0.2,0.9,0.4c0,0.6,0.4,1,1.9,1.4c1.1,0.3,1.5,0.7,1.6,1.1c0.2,0.6,0.6,1.1,1.9,1.5
				c0.3,0.1,0.5,0.3,0.5,0.5c0,0.4,0.5,0.8,0.9,1.2C303.8,13.2,303.6,13.6,302.6,13.8z M45.5,4c-0.2,0-0.5,0.1-0.7,0.1
				c-0.1,0-0.1,0.1-0.2,0.2c0.1,0.1,0.2,0.2,0.4,0.2c0.2,0,0.6-0.1,0.7-0.1C46,4.2,45.9,4,45.5,4z M84.1,2.3c-0.8,0-1.5,0-1.8,0
				c-1.5,0.1-2.6,0-3.6,0.2c-0.3,0.1-0.5,0.2-0.4,0.3c0,0,0.1,0.1,0.2,0.1c1,0.2,2.1,0.4,3.4,0.2c0.7-0.1,1.5-0.1,2.2-0.3
				c0.4-0.1,0.7-0.2,0.9-0.4C85.2,2.5,84.6,2.3,84.1,2.3z M218.3,3.7c0,0-0.1-0.1-0.2-0.2c-0.6-0.3-1.4-0.6-2.3-0.6
				c-1.5,0-2.7-0.2-3.9-0.5c-0.1,0-0.3,0-0.4,0c-0.1,0-0.3,0-0.4,0c-0.3,0.1-0.4,0.2-0.2,0.3c0.4,0.2,0.9,0.5,1.5,0.7
				c0.6,0.2,1.3,0.4,2.1,0.3c0.4,0,0.9,0,1.3-0.1c0.7,0,1.3,0.1,1.9,0.1C218,3.8,218.3,3.8,218.3,3.7z M248.7,5.5
				c0-0.1-0.2-0.1-0.3-0.1c-1.2-0.2-2.4-0.4-3.6-0.3c-0.1,0-0.3,0.1-0.4,0.1c-0.2,0.1-0.1,0.2,0.3,0.3c0.6,0.1,1.2,0.1,1.6,0.2
				c0.8,0,1.5,0,2.1,0C248.5,5.6,248.7,5.5,248.7,5.5z M276.4,6.2c0.1-0.2-0.4-0.5-1-0.5c-0.4,0-0.6,0.2-0.9,0.2
				c0,0.2,0.4,0.4,0.9,0.5C275.8,6.4,276.3,6.3,276.4,6.2z"/>
		</g>
	</g>
</g>
</svg>
